<svg width="100%" height="100%" viewBox="0 0 23 5" version="1.1" xmlns="http://www.w3.org/2000/svg" xmlns:xlink="http://www.w3.org/1999/xlink" xml:space="preserve" xmlns:serif="http://www.serif.com/" style="fill-rule:evenodd;clip-rule:evenodd;stroke-linecap:round;stroke-linejoin:round;stroke-miterlimit:1.5;"><g><g><path d="M6.059,1.252l0.379,0.598l4.015,-0.01l0.424,-0.598l-4.818,0.01Z" style="fill:#c9a584;stroke:#404040;stroke-width:0.1px;"/><path d="M8.088,0.091l0.73,0.369l0,2.522l-1.248,1.927l-0.526,-0.416l1.035,-1.628l0.009,-2.774Z" style="fill:#c9a584;stroke:#404040;stroke-width:0.1px;"/></g><g><path d="M21.753,0.091l0.671,0.35l0,2.521l-1.468,1.947l-0.499,-0.362l1.296,-1.701l0,-2.755Z" style="fill:#c9a584;stroke:#404040;stroke-width:0.1px;"/><rect x="18.065" y="0.473" width="0.632" height="2.012" style="fill:#4db6ac;stroke:#404040;stroke-width:0.1px;"/><rect x="19.676" y="0.473" width="0.632" height="2.012" style="fill:#f29200;stroke:#404040;stroke-width:0.1px;"/></g><g><path d="M1.945,0.093l-1.869,2.407l0.827,-0l1.918,-2.409l-0.876,0.002Z" style="fill:#c9a584;stroke:#404040;stroke-width:0.1px;"/><path d="M4.511,0.616l-0.012,2.424l-1.519,1.869l-0.544,-0.485l1.318,-1.624l-0.003,-1.518l-1.882,0.004l-0.328,-0.663l2.97,-0.007Z" style="fill:#c9a584;stroke:#404040;stroke-width:0.1px;"/><path d="M1.76,2.333l0.893,-0l2.24,1.586l-0.961,-0l-2.172,-1.586Z" style="fill:#c9a584;stroke:#404040;stroke-width:0.1px;"/></g><g><path d="M15.726,0.095l-3.862,3.041l0.96,-0l3.872,-3.045l-0.97,0.004Z" style="fill:#c9a584;stroke:#404040;stroke-width:0.1px;"/><path d="M14.153,1.334l0.72,0.185l0.031,3.367l-0.711,-0l-0.04,-3.552Z" style="fill:#c9a584;stroke:#404040;stroke-width:0.1px;"/></g></g></svg>
