<svg width="100%" height="100%" viewBox="0 0 25 23" version="1.1" xmlns="http://www.w3.org/2000/svg" xmlns:xlink="http://www.w3.org/1999/xlink" xml:space="preserve" xmlns:serif="http://www.serif.com/" style="fill-rule:evenodd;clip-rule:evenodd;stroke-linecap:round;stroke-linejoin:round;stroke-miterlimit:1.5;"><g><rect x="0.125" y="0.077" width="24.75" height="22.846" style="fill:none;stroke:#404040;stroke-width:0.23px;"/><path d="M1.454,5.803l0.575,1.221l6.346,0l0.65,-1.251l-7.571,0.03Z" style="fill:#c9a584;stroke:#404040;stroke-width:0.23px;"/><path d="M8.154,7.59l1.254,1.221l13.837,0l1.417,-1.251l-16.508,0.03Z" style="fill:#f29200;stroke:#404040;stroke-width:0.23px;"/><path d="M9.461,13.433l1.053,1.222l11.631,-0l1.19,-1.251l-13.874,0.029Z" style="fill:#c9a584;stroke:#404040;stroke-width:0.23px;"/><rect x="2.346" y="9.596" width="0.967" height="4.442" style="fill:#c9a584;stroke:#404040;stroke-width:0.23px;"/><rect x="6.825" y="9.596" width="0.967" height="4.442" style="fill:#c9a584;stroke:#404040;stroke-width:0.23px;"/><path d="M9.787,1.981l0,20.291l1.253,0.016l-0,-19.122l3.003,0l-0,19.122l1.17,0l-0.039,-20.307l-5.387,-0Z" style="fill:#c9a584;stroke:#404040;stroke-width:0.23px;"/><path d="M17.495,1.981l0,20.291l1.253,0.016l-0,-19.122l3.003,0l-0,19.122l1.17,0l-0.039,-20.307l-5.387,-0Z" style="fill:#c9a584;stroke:#404040;stroke-width:0.23px;"/><path d="M4.622,0.469l1.234,0.674l-0,21.221l-1.303,-0l0.069,-21.895Z" style="fill:#c9a584;stroke:#404040;stroke-width:0.23px;"/><rect x="18.846" y="10.734" width="0.635" height="2.538" style="fill:#d0e46d;stroke:#404040;stroke-width:0.23px;"/><path d="M19.562,11.232l1.357,2.145l0.537,-0.34l-1.358,-2.144l-0.536,0.339Z" style="fill:#75cbc5;stroke:#404040;stroke-width:0.23px;"/><rect x="11.231" y="4.334" width="0.635" height="3.041" style="fill:#7edefc;stroke:#404040;stroke-width:0.23px;"/><rect x="11.865" y="4.837" width="0.635" height="2.538" style="fill:#c597cd;stroke:#404040;stroke-width:0.23px;"/><rect x="12.5" y="4.837" width="0.635" height="2.538" style="fill:#98d0ef;stroke:#404040;stroke-width:0.23px;"/><rect x="11.04" y="7.579" width="10.711" height="1.232" style="fill:#f29200;stroke:#404040;stroke-width:0.2px;"/></g></svg>
